<svg xmlns="http://www.w3.org/2000/svg" width="1200" height="630" viewBox="0 0 1200 630" role="img" aria-labelledby="title desc">
  <title id="title">Nutrivia</title>
  <desc id="desc">Plateforme de nutrition personnalisée, recettes et planification de repas</desc>
  <defs>
    <linearGradient id="bg" x1="0" y1="0" x2="1" y2="1">
      <stop offset="0" stop-color="#ecfbf4"/>
      <stop offset="0.55" stop-color="#f8fdff"/>
      <stop offset="1" stop-color="#eaf4ff"/>
    </linearGradient>
    <linearGradient id="green" x1="0" y1="0" x2="1" y2="1">
      <stop offset="0" stop-color="#08b37d"/>
      <stop offset="1" stop-color="#35d0ad"/>
    </linearGradient>
    <filter id="shadow" x="-20%" y="-20%" width="140%" height="140%">
      <feDropShadow dx="0" dy="24" stdDeviation="28" flood-color="#16324f" flood-opacity="0.16"/>
    </filter>
  </defs>
  <rect width="1200" height="630" fill="url(#bg)"/>
  <circle cx="1070" cy="90" r="230" fill="#d6f7df" opacity="0.78"/>
  <circle cx="120" cy="560" r="260" fill="#ddecff" opacity="0.7"/>
  <rect x="96" y="100" width="1008" height="430" rx="46" fill="#ffffff" filter="url(#shadow)"/>
  <rect x="146" y="150" width="180" height="52" rx="26" fill="#d8f7e1"/>
  <text x="176" y="184" font-family="Arial, sans-serif" font-size="22" font-weight="700" fill="#0a9a68">Nutrivia</text>
  <text x="146" y="282" font-family="Arial, sans-serif" font-size="66" font-weight="800" fill="#17213a">Nutrition personnalisée</text>
  <text x="146" y="355" font-family="Arial, sans-serif" font-size="34" font-weight="500" fill="#4b617d">Recettes, suivi alimentaire, planning, courses et IA</text>
  <rect x="146" y="410" width="290" height="62" rx="18" fill="url(#green)"/>
  <text x="181" y="450" font-family="Arial, sans-serif" font-size="24" font-weight="700" fill="#ffffff">Découvrir Nutrivia</text>
  <g transform="translate(845 188)">
    <rect width="170" height="170" rx="42" fill="url(#green)" opacity="0.96"/>
    <path d="M87 38 72 78H111L79 132 91 91H57L87 38Z" fill="#ffffff"/>
  </g>
</svg>
