<svg width="16" height="16" viewBox="0 0 16 16" fill="none" xmlns="http://www.w3.org/2000/svg">
<g clip-path="url(#clip0_2_1278)">
<path d="M6.62037 10.3266C6.56089 10.096 6.44071 9.8856 6.27234 9.71723C6.10397 9.54886 5.89356 9.42869 5.66299 9.36921L1.57566 8.31523C1.50592 8.29543 1.44455 8.25343 1.40084 8.1956C1.35714 8.13777 1.3335 8.06726 1.3335 7.99477C1.3335 7.92228 1.35714 7.85177 1.40084 7.79394C1.44455 7.7361 1.50592 7.6941 1.57566 7.67431L5.66299 6.61966C5.89347 6.56024 6.10383 6.44016 6.2722 6.27192C6.44056 6.10367 6.56078 5.89339 6.62037 5.66295L7.67435 1.57562C7.69394 1.50561 7.7359 1.44393 7.79382 1.39999C7.85174 1.35606 7.92244 1.33228 7.99514 1.33228C8.06784 1.33228 8.13854 1.35606 8.19646 1.39999C8.25438 1.44393 8.29634 1.50561 8.31593 1.57562L9.36924 5.66295C9.42872 5.89352 9.5489 6.10393 9.71727 6.2723C9.88564 6.44067 10.0961 6.56085 10.3266 6.62033L14.414 7.67364C14.4842 7.69303 14.5462 7.73494 14.5904 7.79295C14.6346 7.85096 14.6585 7.92186 14.6585 7.99477C14.6585 8.06768 14.6346 8.13858 14.5904 8.19659C14.5462 8.25459 14.4842 8.2965 14.414 8.31589L10.3266 9.36921C10.0961 9.42869 9.88564 9.54886 9.71727 9.71723C9.5489 9.8856 9.42872 10.096 9.36924 10.3266L8.31526 14.4139C8.29567 14.4839 8.25372 14.5456 8.1958 14.5895C8.13788 14.6335 8.06717 14.6573 7.99447 14.6573C7.92177 14.6573 7.85107 14.6335 7.79315 14.5895C7.73523 14.5456 7.69327 14.4839 7.67368 14.4139L6.62037 10.3266Z" stroke="white" stroke-width="1.33247" stroke-linecap="round" stroke-linejoin="round"/>
<path d="M13.3247 1.99878V4.66371" stroke="white" stroke-width="1.33247" stroke-linecap="round" stroke-linejoin="round"/>
<path d="M14.6571 3.33105H11.9922" stroke="white" stroke-width="1.33247" stroke-linecap="round" stroke-linejoin="round"/>
<path d="M2.66504 11.3259V12.6584" stroke="white" stroke-width="1.33247" stroke-linecap="round" stroke-linejoin="round"/>
<path d="M3.331 11.9922H1.99854" stroke="white" stroke-width="1.33247" stroke-linecap="round" stroke-linejoin="round"/>
</g>
<defs>
<clipPath id="clip0_2_1278">
<rect width="15.9896" height="15.9896" fill="white"/>
</clipPath>
</defs>
</svg>
