<svg width="706" height="304" viewBox="0 0 706 304" fill="none" xmlns="http://www.w3.org/2000/svg">
<path d="M164.545 159.544C182.519 137.913 199.731 115.582 218.751 94.9125C230.257 82.408 244.481 72.3798 257.68 61.4775C260.443 59.1959 263.931 57.5905 267.326 56.319C274.889 53.4869 279.53 57.1486 277.789 64.9739C276.43 71.0808 274.186 77.0938 271.578 82.802C259.419 109.409 245.725 135.367 236.808 163.342C234.055 171.981 232.308 181.009 230.939 189.987C230.415 193.427 231.711 197.448 233.133 200.8C234.641 204.356 232.742 205.087 230.317 205.484C226.352 206.133 222.696 202.868 221.915 198.021C220.308 188.046 222.566 178.485 225.418 169.045C233.968 140.745 246.92 114.291 259.606 87.7247C261.756 83.2224 263.721 78.6241 265.572 73.9903C266.398 71.9204 266.73 69.653 267.286 67.4753C266.863 67.0481 266.44 66.6209 266.017 66.1938C261.312 69.0462 256.311 71.507 251.954 74.8169C230.034 91.4693 211.909 111.925 194.677 133.178C175.141 157.272 157.055 182.374 143.586 210.493C141.856 214.103 138.957 214.755 135.703 213.668C132.437 212.578 133.092 209.658 133.988 207.322C140.055 191.498 145.369 175.307 152.595 160.024C165.032 133.721 178.717 108.008 191.776 81.9956C192.976 79.6044 193.441 76.8439 194.248 74.2549C191.248 74.0423 188.087 73.1053 185.272 73.728C153.692 80.7118 122.543 89.0625 94.0538 105.037C90.3076 107.138 87.0863 110.174 83.3434 112.282C81.8401 113.128 79.5853 112.64 77.6726 112.76C77.6626 110.666 76.768 107.572 77.8018 106.657C81.4977 103.386 85.6429 100.479 89.9855 98.1077C109.546 87.4244 130.749 80.9435 152.092 75.1528C168.921 70.5868 186.087 67.2622 203.109 63.409C204.24 63.1528 205.487 62.7691 206.555 63.0075C208.374 63.4138 210.691 63.8152 211.652 65.086C212.333 65.9867 211.527 68.5513 210.695 69.9691C205.728 78.4381 200.13 86.5618 195.547 95.2263C184.585 115.951 174.069 136.912 163.158 158.362C162.757 159.461 162.571 159.975 162.213 160.73C162.101 161.238 162.161 161.507 162.221 161.775C162.524 161.561 162.827 161.346 163.395 161.045C163.955 160.487 164.25 160.015 164.545 159.544Z" fill="#F5F5F6"/>
<path d="M366.505 109.663C379.575 108.347 392.635 106.92 405.722 105.797C408.761 105.536 411.89 106.31 414.977 106.608C415.034 107.367 415.091 108.127 415.148 108.886C413.29 109.476 411.469 110.362 409.567 110.608C394.733 112.52 379.871 114.219 365.054 116.249C363.241 116.498 360.839 117.908 360.067 119.457C352.503 134.643 345.576 150.104 342.489 166.954C342.132 168.9 341.937 170.941 342.093 172.904C342.495 177.926 345.429 180.734 350.366 179.881C354.179 179.223 358.372 177.994 361.329 175.665C369.805 168.99 378.377 162.208 385.611 154.282C389.11 150.449 389.714 143.964 391.588 138.665C392.031 137.412 392.426 136.121 392.638 134.814C393.227 131.19 395.381 129.188 398.877 130.178C402.612 131.236 402.59 134.354 401.433 137.52C399.951 141.576 398.469 145.633 397.012 149.698C396.699 150.571 396.492 151.482 397.182 153.135C398.442 151.895 399.713 150.667 400.96 149.414C406.698 143.647 412.251 137.676 418.255 132.2C420.622 130.041 423.863 128.137 426.943 127.665C429.899 127.213 433.399 128.286 436.179 129.661C437.37 130.25 437.346 133.298 437.874 135.229C436.09 135.702 433.963 137.038 432.586 136.49C428.076 134.697 424.89 136.632 421.642 139.188C406.59 151.033 395.995 166.528 386.04 182.556C385.175 183.949 384.392 185.813 383.091 186.409C381.49 187.143 379.07 187.406 377.602 186.674C376.511 186.13 375.644 183.52 375.951 182.106C376.753 178.399 378.251 174.842 379.692 170.621C379.841 169.753 379.769 169.49 379.697 169.227C379.352 169.372 379.007 169.516 378.662 169.661C371.939 174.53 365.367 179.631 358.417 184.152C355.753 185.885 352.285 186.878 349.083 187.195C339.816 188.113 333.867 182.737 333.184 173.354C333.055 171.593 333.165 169.814 333.165 167.257C328.258 171.391 324.354 175.517 319.676 178.377C315.277 181.067 310.194 183.467 305.171 184.106C298.247 184.987 294.418 180.754 293.973 173.729C293.81 171.156 293.947 168.564 293.947 165.209C287.808 171.191 282.615 176.754 276.868 181.669C273.267 184.749 269.083 187.467 264.713 189.249C258.49 191.786 253.154 188.268 253.774 181.643C254.428 174.65 256.165 167.564 258.664 160.987C261.902 152.468 266.275 144.37 270.353 136.187C271.447 133.991 272.888 131.634 274.823 130.291C276.541 129.098 279.164 129.21 281.387 128.745C281.226 130.712 281.559 132.888 280.825 134.611C274.915 148.497 268.79 162.291 262.781 176.135C262.327 177.181 262.117 178.384 262.034 179.532C261.823 182.456 263.066 183.913 265.863 182.234C268.696 180.535 271.778 178.81 273.837 176.335C283.184 165.102 292.222 153.61 301.335 142.182C302.784 140.365 303.676 137.8 305.501 136.672C307.294 135.563 309.946 135.843 312.221 135.514C312.511 137.611 313.595 140.005 312.944 141.751C310.804 147.491 307.772 152.897 305.597 158.626C304.135 162.478 303.172 166.612 302.646 170.705C301.865 176.78 305.668 179.57 310.759 176.3C316.876 172.371 322.447 167.551 328.054 162.876C333.48 158.352 337.273 152.963 339.19 145.746C341.563 136.817 345.534 128.312 349.104 118.854C342.728 119.939 336.775 121.22 330.755 121.847C328.288 122.104 323.549 121.144 323.482 120.404C323.118 116.437 326.75 116.197 329.654 115.69C336.21 114.545 342.816 113.659 349.324 112.298C350.968 111.954 352.885 110.539 353.715 109.073C358.055 101.405 362.13 93.5856 366.199 85.7676C367.678 82.9259 369.606 80.8738 372.86 82.5926C375.95 84.2255 376.678 87.0987 375.04 90.2821C371.997 96.1971 368.873 102.071 365.524 108.477C365.679 109.216 366.092 109.44 366.505 109.663ZM396.695 153.873C396.769 153.481 396.843 153.09 396.916 152.699C396.508 152.753 396.05 152.72 395.72 152.909C395.599 152.978 395.783 153.578 396.695 153.873Z" fill="#F4F4F5"/>
<path d="M540.974 136.914C542.467 134.697 543.449 132.214 545.267 131.11C546.941 130.094 549.515 130.561 551.692 130.375C551.693 132.182 552.262 134.239 551.599 135.757C547.807 144.425 543.607 152.915 539.803 161.578C538.547 164.436 537.747 167.587 537.316 170.684C536.993 173.004 537.595 175.453 537.785 177.844C540.306 177.476 543.221 177.792 545.275 176.612C551.168 173.224 557.145 169.74 562.296 165.361C570.621 158.281 578.377 150.522 586.253 142.927C593.002 136.418 599.927 130.211 609.093 127.295C615.628 125.216 621.909 124.533 626.58 131.168C626.988 131.748 627.848 132.143 628.575 132.345C632.505 133.438 632.445 135.978 630.943 138.917C628.901 142.915 626.419 146.715 624.676 150.832C622.294 156.463 620.039 162.208 618.453 168.098C616.881 173.934 620.026 177.432 626.085 177.372C634.577 177.287 642.026 173.733 648.777 169.185C658.831 162.411 668.403 154.924 678.172 147.729C679.373 146.844 680.404 145.55 681.737 145.083C682.703 144.745 684.203 145.218 685.123 145.836C685.459 146.061 685.174 148.161 684.555 148.717C668.304 163.313 651.991 177.998 629.945 183.265C615.735 186.66 610.077 182.105 609.162 167.748C609.145 167.477 608.887 167.222 607.815 165.291C606.069 167.639 604.945 169.963 603.132 171.438C597.352 176.141 591.502 180.81 585.308 184.934C581.502 187.468 576.952 188.528 572.675 185.424C568.325 182.269 568.81 177.664 569.325 173.135C569.508 171.532 569.894 169.952 570.395 167.232C568.488 168.536 567.46 169.189 566.484 169.914C560.879 174.08 555.298 178.279 549.676 182.423C548.75 183.106 547.712 183.687 546.647 184.124C541.743 186.135 536.463 187.75 531.925 184.175C527.559 180.736 527.208 175.213 528.798 170.369C532.459 159.215 536.776 148.276 540.974 136.914ZM594.6 144.103C586.908 152.558 580.652 161.894 577.441 172.98C576.981 174.568 577.09 176.778 577.91 178.096C578.355 178.813 581.123 178.799 582.366 178.17C585.883 176.393 589.849 174.758 592.394 171.943C601.069 162.345 609.132 152.196 617.605 142.411C620.009 139.635 621.126 136.387 618.585 134.102C616.882 132.571 612.628 131.969 610.633 133.038C605.147 135.975 600.25 140.012 594.6 144.103Z" fill="#F4F4F5"/>
<path d="M455.342 175.578C456.802 174.685 457.955 174.02 459.078 173.308C478.715 160.858 481.79 156.262 484.661 133.466C485.144 129.631 486.561 128.04 490.264 128.32C494.314 128.625 494.712 131.452 494.035 134.435C491.946 143.648 489.547 152.79 487.429 161.997C486.158 167.521 485.188 173.114 484.082 178.676C484.626 178.913 485.17 179.151 485.714 179.388C487.444 177.756 489.469 176.342 490.858 174.458C501.321 160.267 511.654 145.98 522.039 131.732C523.901 129.177 525.803 126.651 527.71 124.131C529.734 121.457 532.548 120.706 534.964 122.821C535.695 123.46 534.799 126.989 533.706 128.522C523.083 143.415 512.371 158.25 501.427 172.908C497.961 177.55 494.042 181.98 489.694 185.778C487.627 187.583 483.381 189.127 481.359 188.171C478.958 187.037 477.146 183.265 476.433 180.309C475.603 176.87 476.239 173.076 476.239 168.549C474.793 169.68 473.649 170.671 472.411 171.527C466.265 175.774 460.393 180.535 453.865 184.084C443.097 189.938 434.859 184.69 435.931 172.66C437.244 157.916 443.967 145.015 451.513 132.606C452.411 131.129 455.054 130.111 456.96 129.985C460.151 129.774 461.621 131.64 459.996 134.815C457.802 139.103 455.075 143.16 453.281 147.601C450.119 155.429 447.321 163.418 444.759 171.464C444.141 173.402 445.044 175.825 445.248 178.025C447.46 177.789 449.697 177.681 451.875 177.267C452.978 177.057 453.976 176.296 455.342 175.578ZM476.502 168.997C476.535 168.708 476.568 168.418 476.601 168.129C476.409 168.257 476.218 168.385 476.502 168.997Z" fill="#F4F4F5"/>
<path d="M374.333 243.17C378.653 240.209 382.74 240.053 386.593 243.087C390.399 246.083 391.111 251.902 388.385 255.657C385.73 259.314 379.994 260.35 375.792 257.931C371.525 255.475 370.044 250.871 372.147 246.339C372.63 245.299 373.403 244.393 374.333 243.17Z" fill="#F5F5F6"/>
<path d="M422.46 256.554C419.206 252.56 419.093 248.683 421.764 244.815C424.107 241.421 427.585 240.411 431.423 241.28C435.587 242.222 438.499 245.198 438.202 249.345C437.995 252.246 436.345 255.786 434.154 257.634C430.643 260.594 426.381 259.655 422.46 256.554Z" fill="#2B6FCC"/>
<path d="M327.328 258.064C322.381 254.005 321.334 250.165 323.673 245.802C325.853 241.734 330.619 240.002 335.197 241.613C339.499 243.128 341.85 247.138 341.185 251.824C340.344 257.745 335.019 260.273 327.328 258.064Z" fill="#63AA73"/>
<path d="M556.508 103.335C558.983 104.309 562.581 105.118 562.839 106.535C563.196 108.492 561.589 111.872 559.817 112.892C557.435 114.261 554.093 113.959 551.163 114.375C550.968 112.266 549.971 109.751 550.782 108.153C551.782 106.183 554.287 104.977 556.508 103.335Z" fill="#F2F2F4"/>
<path d="M462.869 115.624C460.927 114.749 458.312 114.088 458.034 112.886C457.626 111.126 458.306 108.346 459.591 107.154C461.221 105.641 463.875 104.832 466.179 104.592C467.639 104.439 470.201 105.552 470.587 106.676C471.105 108.184 470.562 110.785 469.456 111.949C467.866 113.622 465.358 114.423 462.869 115.624Z" fill="#F1F0F2"/>
<path d="M164.233 159.27C164.25 160.015 163.955 160.486 163.215 160.877C162.77 160.795 162.385 160.49 162.385 160.49C162.571 159.975 162.757 159.461 163.101 158.722C163.48 158.664 163.7 158.83 164.233 159.27Z" fill="#111423"/>
<path d="M162.95 160.964C162.827 161.346 162.524 161.561 162.221 161.775C162.161 161.507 162.101 161.238 162.213 160.73C162.385 160.49 162.771 160.795 162.95 160.964Z" fill="#111423"/>
<path d="M396.261 153.904C395.783 153.578 395.599 152.978 395.719 152.909C396.05 152.72 396.508 152.753 396.916 152.699C396.842 153.09 396.769 153.482 396.261 153.904Z" fill="#111423"/>
<path d="M378.897 169.88C379.007 169.516 379.352 169.372 379.698 169.227C379.769 169.49 379.841 169.753 379.774 170.258C379.468 170.366 379.3 170.233 378.897 169.88Z" fill="#111423"/>
<path d="M366.303 109.401C366.092 109.44 365.679 109.216 365.459 108.823C365.802 108.815 365.951 108.977 366.303 109.401Z" fill="#111423"/>
<path d="M476.264 168.755C476.217 168.385 476.409 168.257 476.601 168.129C476.568 168.418 476.535 168.708 476.264 168.755Z" fill="#111423"/>
</svg>
